<?xml version="1.0" standalone="no"?><!DOCTYPE svg PUBLIC "-//W3C//DTD SVG 1.1//EN" "http://www.w3.org/Graphics/SVG/1.1/DTD/svg11.dtd"><svg t="1755583594855" class="icon" viewBox="0 0 1024 1024" version="1.1" xmlns="http://www.w3.org/2000/svg" p-id="5834" xmlns:xlink="http://www.w3.org/1999/xlink" width="200" height="200"><path d="M512.6 62.9C265.9 62.9 66 262.9 66 509.7s200 446.7 446.7 446.7 446.7-200 446.7-446.7-200-446.8-446.8-446.8z m112.9 562.4c0 15.6-12.7 28.3-28.3 28.3h-321c-7.5 0-14.7-3-20-8.3-5.3-5.3-8.3-12.5-8.3-20V394c0-15.6 12.7-28.3 28.3-28.3h321c7.5 0 14.7 3 20 8.3 5.3 5.3 8.3 12.5 8.3 20v231.3z m166.8 17.8c0 3.5-2 6.7-5.1 8.4-3.1 1.6-6.9 1.4-9.8-0.6L661 562c-2.5-1.8-4-4.7-4-7.7V465c0-3.1 1.5-6 4-7.7l116.4-88.8c2.9-2 6.6-2.3 9.8-0.6 3.1 1.6 5.1 4.9 5.1 8.4v266.8z" fill="#00C439" p-id="5835"></path></svg>